<?xml version="1.0" standalone="no"?>
<!DOCTYPE svg PUBLIC "-//W3C//DTD SVG 20010904//EN"
 "http://www.w3.org/TR/2001/REC-SVG-20010904/DTD/svg10.dtd">
<svg version="1.0" xmlns="http://www.w3.org/2000/svg"
 width="410.000000pt" height="128.000000pt" viewBox="0 0 410.000000 128.000000"
 preserveAspectRatio="xMidYMid meet">

<g transform="translate(0.000000,128.000000) scale(0.100000,-0.100000)"
fill="#000000" stroke="none">
<path d="M305 1181 c-47 -21 -98 -70 -122 -115 -10 -18 -18 -64 -21 -113 -4
-75 -2 -88 23 -139 95 -195 388 -169 450 40 41 136 -9 271 -119 322 -64 30
-153 32 -211 5z m182 -113 c31 -29 46 -90 40 -155 -9 -90 -67 -142 -143 -130
-75 12 -108 68 -102 173 3 65 7 77 33 104 51 53 121 56 172 8z"/>
<path d="M1363 1180 c-54 -24 -83 -70 -83 -132 0 -63 30 -97 135 -151 67 -35
81 -47 83 -69 7 -60 -102 -77 -184 -29 l-34 20 0 -55 c0 -50 2 -55 28 -66 15
-6 65 -11 112 -12 136 -1 200 46 200 146 0 65 -27 98 -111 142 -89 47 -109 63
-109 89 0 11 8 26 18 33 23 18 104 18 147 0 l35 -15 0 53 c0 52 -1 54 -31 60
-64 12 -163 6 -206 -14z"/>
<path d="M730 940 l0 -250 55 0 55 0 0 178 0 177 116 -177 116 -178 59 0 59 0
0 250 0 250 -55 0 -55 0 -2 -167 -3 -166 -106 164 -107 164 -66 3 -66 3 0
-251z"/>
<path d="M1710 940 l0 -250 55 0 55 0 0 250 0 250 -55 0 -55 0 0 -250z"/>
<path d="M1890 1145 l0 -45 70 0 70 0 0 -205 0 -205 55 0 55 0 0 205 0 205 70
0 70 0 0 45 0 45 -195 0 -195 0 0 -45z"/>
<path d="M2360 940 l0 -250 150 0 150 0 0 45 0 45 -95 0 -95 0 0 60 0 60 85 0
85 0 0 45 0 45 -85 0 -85 0 0 55 0 55 90 0 90 0 0 45 0 45 -145 0 -145 0 0
-250z"/>
<path d="M230 330 l0 -110 65 0 c37 0 65 4 65 10 0 6 -25 10 -55 10 l-55 0 0
40 0 40 50 0 c28 0 50 5 50 10 0 6 -22 10 -50 10 l-50 0 0 40 0 40 55 0 c30 0
55 5 55 10 0 6 -28 10 -65 10 l-65 0 0 -110z"/>
<path d="M485 415 c-43 -42 -31 -68 41 -93 35 -13 50 -24 52 -39 4 -29 -31
-47 -79 -40 -39 5 -53 -5 -23 -17 35 -13 83 -6 111 18 24 21 26 27 18 52 -8
21 -21 33 -50 42 -56 18 -70 34 -55 62 10 19 18 22 56 17 43 -4 59 5 28 17
-34 13 -75 6 -99 -19z"/>
<path d="M680 430 c0 -5 16 -10 35 -10 l35 0 0 -100 c0 -60 4 -100 10 -100 6
0 10 40 10 100 l0 100 40 0 c22 0 40 5 40 10 0 6 -35 10 -85 10 -50 0 -85 -4
-85 -10z"/>
<path d="M950 330 c0 -91 3 -110 15 -110 11 0 15 12 15 50 0 36 4 50 14 50 8
0 28 -22 46 -50 18 -27 39 -50 47 -50 15 0 15 0 -24 62 -22 37 -23 38 -3 48
45 24 47 79 4 99 -14 6 -45 11 -69 11 l-45 0 0 -110z m110 71 c13 -25 13 -27
-6 -45 -8 -9 -29 -16 -45 -16 -27 0 -29 2 -29 40 0 39 1 40 35 40 24 0 37 -6
45 -19z"/>
<path d="M1202 349 c3 -81 6 -93 27 -110 33 -27 86 -25 116 6 23 22 25 32 25
110 0 69 -3 85 -15 85 -12 0 -15 -17 -15 -90 0 -78 -2 -91 -19 -100 -28 -14
-57 -12 -75 6 -12 12 -16 36 -16 100 0 70 -3 84 -16 84 -14 0 -15 -13 -12 -91z"/>
<path d="M1450 430 c0 -5 16 -10 35 -10 l35 0 0 -100 c0 -82 3 -100 15 -100
12 0 15 18 15 100 l0 100 35 0 c19 0 35 5 35 10 0 6 -35 10 -85 10 -50 0 -85
-4 -85 -10z"/>
<path d="M1712 349 c3 -81 6 -93 27 -110 33 -27 86 -25 116 6 23 22 25 32 25
110 0 69 -3 85 -15 85 -12 0 -15 -17 -15 -90 0 -78 -2 -91 -19 -100 -28 -14
-57 -12 -75 6 -12 12 -16 36 -16 100 0 70 -3 84 -16 84 -14 0 -15 -13 -12 -91z"/>
<path d="M2000 331 c0 -92 3 -111 15 -111 11 0 15 12 15 50 0 66 19 66 62 0
45 -67 68 -67 31 1 -20 37 -24 53 -15 56 21 8 42 33 42 52 0 38 -25 54 -89 59
l-61 4 0 -111z m108 77 c30 -30 1 -68 -52 -68 -24 0 -26 4 -26 40 0 39 1 40
33 40 18 0 38 -5 45 -12z"/>
<path d="M2317 433 c-3 -5 -15 -31 -25 -59 -11 -27 -29 -73 -41 -101 -17 -43
-18 -53 -7 -53 8 0 20 16 27 35 12 33 15 35 60 35 43 0 47 -2 55 -32 6 -18 17
-34 26 -36 14 -3 8 18 -26 105 -41 101 -57 125 -69 106z m31 -76 c16 -46 16
-47 -18 -47 -16 0 -30 3 -30 7 0 14 24 73 30 73 3 0 11 -15 18 -33z"/>
<path d="M2542 424 c-25 -17 -30 -65 -9 -82 7 -6 31 -17 52 -24 72 -24 55 -82
-22 -76 -50 4 -54 -15 -4 -20 47 -5 90 16 98 46 8 35 -7 55 -58 72 -36 13 -45
21 -47 42 -3 22 2 29 23 34 14 3 37 4 50 2 28 -6 34 6 9 16 -28 11 -69 6 -92
-10z"/>
</g>
</svg>
